HIERARCHY
ROOT Hips
{
  OFFSET -32.5998 29.0326 120.673
  CHANNELS 6 Xposition Yposition Zposition Zrotation Xrotation Yrotation
  JOINT LeftUpLeg
  {
    OFFSET 8.64259 1.95398 -2.38835
    CHANNELS 3 Zrotation Xrotation Yrotation
    JOINT LeftLeg
    {
      OFFSET 43.7702 0 0
      CHANNELS 3 Zrotation Xrotation Yrotation
      JOINT LeftFoot
      {
        OFFSET 40.6238 0 0
        CHANNELS 3 Zrotation Xrotation Yrotation
        JOINT LeftToeBase
        {
          OFFSET 12.7242 0 0
          CHANNELS 3 Zrotation Xrotation Yrotation
          End Site
          {
            OFFSET 0 0 0
          }
        }
      }
    }
  }
  JOINT RightUpLeg
  {
    OFFSET -8.2249 1.95398 -2.59336
    CHANNELS 3 Zrotation Xrotation Yrotation
    JOINT RightLeg
    {
      OFFSET 43.5653 0 0
      CHANNELS 3 Zrotation Xrotation Yrotation
      JOINT RightFoot
      {
        OFFSET 40.6238 0 0
        CHANNELS 3 Zrotation Xrotation Yrotation
        JOINT RightToeBase
        {
          OFFSET 12.7242 0 0
          CHANNELS 3 Zrotation Xrotation Yrotation
          End Site
          {
            OFFSET 0 0 0
          }
        }
      }
    }
  }
  JOINT Spine
  {
    OFFSET 0.165834 0.87714 6.61349
    CHANNELS 3 Zrotation Xrotation Yrotation
    JOINT Spine1
    {
      OFFSET 7.38963 1.71661e-005 0
      CHANNELS 3 Zrotation Xrotation Yrotation
      JOINT Spine2
      {
        OFFSET 11.9445 1.14441e-005 0
        CHANNELS 3 Zrotation Xrotation Yrotation
        JOINT Spine3
        {
          OFFSET 14.7254 4.19617e-005 0
          CHANNELS 3 Zrotation Xrotation Yrotation
          JOINT Spine4
          {
            OFFSET 10.9679 0 0
            CHANNELS 3 Zrotation Xrotation Yrotation
            JOINT RightShoulder
            {
              OFFSET 2.46616 -1.6653 3.69651
              CHANNELS 3 Zrotation Xrotation Yrotation
              JOINT RightArm
              {
                OFFSET 13.0012 0 0
                CHANNELS 3 Zrotation Xrotation Yrotation
                JOINT RightForeArm
                {
                  OFFSET 28.7848 1.62311e-005 0
                  CHANNELS 3 Zrotation Xrotation Yrotation
                  JOINT RightHand
                  {
                    OFFSET 26.5688 1.62095e-005 0
                    CHANNELS 3 Zrotation Xrotation Yrotation
                    End Site
                    {
                      OFFSET 0 0 0
                    }
                  }
                }
              }
            }
            JOINT LeftShoulder
            {
              OFFSET 2.38034 -1.29275 -3.7523
              CHANNELS 3 Zrotation Xrotation Yrotation
              JOINT LeftArm
              {
                OFFSET 16.3182 6.07031e-005 0
                CHANNELS 3 Zrotation Xrotation Yrotation
                JOINT LeftForeArm
                {
                  OFFSET 27.0901 0 0
                  CHANNELS 3 Zrotation Xrotation Yrotation
                  JOINT LeftHand
                  {
                    OFFSET 24.5451 1.51738e-005 0
                    CHANNELS 3 Zrotation Xrotation Yrotation
                    End Site
                    {
                      OFFSET 0 0 0
                    }
                  }
                }
              }
            }
            JOINT Neck
            {
              OFFSET 5.0226 -0.0266342 0
              CHANNELS 3 Zrotation Xrotation Yrotation
              JOINT Head
              {
                OFFSET 6.69364 2.86102e-005 0
                CHANNELS 3 Zrotation Xrotation Yrotation
                End Site
                {
                  OFFSET 0 0 0
                }
              }
            }
          }
        }
      }
    }
  }
}
MOTION
Frames:	17
Frame Time:	0.0416667
31.8505 44.4239 -0.0262776 -4.06053 -79.2129 -4.11822 -34.7188 61.1124 -18.0882 -139.986 24.9118 7.07084 99.4906 27.9404 -0.874303 -0.59337 -16.8254 4.03442 52.665 53.833 -170.884 -139.985 -15.0193 -7.81104 97.1823 -30.1108 -7.0779 14.6193 3.67251 7.42327 0.728697 12.2346 -90.4475 2.40804 1.28098 -0.851358 -9.2626 1.24227 -0.906926 -31.8021 1.47762 -0.426969 -11.7894 1.47762 -0.426968 89.2663 -14.2874 -116.53 -15.7339 12.2965 -47.9928 -6.33551 18.5465 -10.8766 6.66535 -1.11486 -22.0852 -89.783 -23.082 71.1171 17.4671 -10.7703 -78.6634 2.80307 -36.0912 0.131995 -22.6036 1.84139 -14.7218 40.2317 -0.596398 -1.01962 -12.9531 -0.0283358 -0.295044 
31.7857 43.7895 0.490414 -5.73712 -80.3631 -5.73178 -35.6713 62.0331 -16.7887 -141.113 24.5213 7.10336 101.396 29.6221 -0.477801 -2.58089 -16.6293 2.36271 53.8623 53.8745 -172.284 -141.27 -14.8097 -7.94693 97.6243 -30.7772 -7.82378 13.9316 3.0276 9.79507 0.73291 12.0731 -90.4355 2.73108 1.29303 -0.834084 -8.93952 1.25507 -0.890198 -31.4792 1.48392 -0.406857 -11.4665 1.48393 -0.406857 89.2988 -14.3162 -116.428 -15.6894 9.75256 -48.0451 -5.50132 19.583 -11.2642 8.0349 -1.25601 -21.2078 -89.843 -24.0345 71.3887 16.4175 -8.37062 -78.4683 2.63841 -35.0352 -0.000727084 -23.4777 2.02304 -15.2981 40.6493 -0.900681 -0.953941 -12.7913 -0.346722 -0.246071 
31.7565 46.0457 0.0276527 -5.81313 -77.652 -6.02933 -37.1304 61.6908 -15.7659 -137.551 25.6044 6.8222 100.086 29.0339 0.132009 -2.22841 -16.5838 2.55967 52.875 54.7056 -170.888 -137.92 -17.349 -7.65765 95.3337 -28.7403 -7.06228 15.5186 3.27361 7.5175 0.739348 11.7046 -90.3281 3.46754 1.34629 -0.637419 -8.20292 1.31693 -0.696066 -30.7434 1.47561 -0.203262 -10.7308 1.47561 -0.203253 89.0761 -14.5536 -116.823 -15.8213 8.93003 -47.8576 -5.31473 19.1929 -11.5282 7.23704 -1.1214 -20.9113 -89.9537 -24.2811 71.2593 16.2767 -7.32217 -77.2392 2.73948 -35.5724 0.00256606 -22.7825 1.93128 -15.3179 42.0745 -1.10116 -1.06313 -12.7735 -0.467784 -0.228767 
31.6931 51.2684 -1.17912 -4.15568 -71.9353 -4.75399 -39.9914 61.4925 -14.4153 -128.642 28.05 5.29671 97.241 27.2803 1.01254 0.182042 -15.4891 2.93279 52.1204 56.5003 -169.23 -129.375 -21.2801 -6.1043 92.6731 -26.4859 -6.50739 14.7477 3.30173 8.26237 0.715942 11.2371 -90.2192 4.4017 1.34143 -0.441479 -7.26864 1.3207 -0.500103 -29.8094 1.41208 -0.0178354 -9.79668 1.41208 -0.0178314 89.416 -14.5994 -115.937 -13.9722 9.41117 -49.3713 -5.51658 19.4977 -11.2175 6.58636 -1.05671 -21.3256 -89.9577 -24.7326 71.4338 14.9028 -7.26413 -77.4495 3.2868 -32.9437 0.00844017 -22.5495 1.94766 -15.5366 43.6997 -1.41148 -1.23426 -13.0284 -0.668531 -0.000329338 
31.4656 58.3616 -2.49651 -2.6087 -65.6 -3.02465 -43.5579 63.8978 -13.2792 -115.294 30.0219 1.39804 94.085 24.6669 1.16702 -0.464909 -15.1094 1.98781 54.6467 59.7189 -170.384 -116.651 -26.1926 -2.26706 89.2214 -23.6597 -6.36298 14.887 3.44816 7.72571 0.705946 10.7948 -90.1715 5.28606 1.33951 -0.36405 -6.38426 1.32219 -0.422665 -28.925 1.38698 0.0554348 -8.91233 1.38698 0.0554342 89.1254 -15.5772 -116.002 -13.1144 9.2176 -49.5693 -6.08122 16.4119 -11.0868 6.41655 -0.974927 -20.3959 -90.1096 -25.1505 71.2919 13.8687 -6.89403 -77.3016 4.12761 -26.6303 -0.00822884 -21.7782 1.9225 -15.9534 43.8922 -1.95966 -1.88448 -13.1005 -0.872252 0.409832 
31.2207 66.318 -3.24073 -2.00702 -58.862 -1.93784 -48.0646 67.6537 -10.6558 -98.5786 32.375 -5.21887 88.4038 20.3973 1.50627 3.40022 -14.1046 3.52087 59.955 63.644 -174.977 -99.8817 -29.6377 4.63688 86.0287 -20.2769 -4.54453 13.6342 3.18753 9.66705 0.694148 10.322 -90.1558 6.2317 1.32092 -0.349454 -5.43864 1.30425 -0.407277 -27.9792 1.36486 0.0637623 -7.96654 1.36486 0.0637573 88.7243 -16.6558 -116.262 -12.2118 8.26449 -48.6434 -6.26005 13.942 -12.1521 4.77921 -0.723433 -19.7774 -90.2608 -25.8452 71.262 14.732 -5.88622 -76.2103 4.19791 -20.783 -0.989341 -20.2594 1.67649 -15.5636 43.7114 -1.9733 -1.79368 -12.1323 -0.860988 -0.468373 
31.1552 74.1443 -3.25543 -1.9031 -53.5608 -1.74869 -60.2835 71.7261 1.06857 -79.2639 33.8992 -14.2648 83.2611 16.8036 1.77621 4.26447 -14.7663 5.05385 71.1448 67.8776 174.05 -79.8853 -33.7679 13.9929 80.5622 -16.6326 -5.7453 13.199 3.05317 10.4135 0.669842 9.86572 -90.0983 7.14385 1.29548 -0.251804 -4.52648 1.28314 -0.308599 -27.0668 1.31125 0.149239 -7.05414 1.31125 0.149234 88.6524 -17.018 -116.199 -10.8186 5.76039 -47.1562 -6.65218 10.3802 -14.9403 5.40307 -0.836678 -20.3639 -90.4126 -26.3563 71.1623 15.872 -3.96473 -74.6349 3.66882 -14.1732 -4.243 -20.8187 1.74558 -15.6339 43.8276 -1.5897 -1.39999 -11.6457 -0.680364 -0.845929 
31.297 81.0537 -2.73192 -1.89983 -50.7463 -2.40688 -87.6905 74.5355 27.8541 -59.9327 30.943 -23.3836 77.9504 13.0214 1.82577 2.64231 -13.1414 1.66734 92.447 71.8103 154.045 -62.1008 -29.8928 20.9244 77.2911 -13.0316 -3.2463 12.7108 3.09478 10.7642 0.553989 9.46985 -89.9631 7.93431 1.12206 0.0109703 -3.73615 1.12146 -0.0384257 -26.2749 1.06687 0.347709 -6.26226 1.06688 0.347723 88.1565 -18.1496 -116.641 -8.83369 4.20623 -45.5337 -7.74541 5.73777 -18.3211 4.63659 -0.684909 -19.3379 -90.4119 -27.124 71.4629 18.1761 -1.29778 -72.6002 3.10517 -12.0661 -7.43386 -19.7625 1.67373 -15.8679 44.1587 -1.54391 -1.49081 -11.9617 -0.593764 -0.69267 
31.4823 86.4725 -1.88787 -2.50432 -52.3586 -3.08329 -124.221 71.9602 63.0934 -46.8237 24.6008 -26.8134 74.5852 10.1211 0.115779 4.79651 -12.7247 2.68225 124.441 70.2309 124.304 -49.0518 -24.6069 23.2071 74.2805 -10.3749 -2.45747 12.6236 3.11839 10.7806 0.500598 9.25886 -89.9414 8.356 1.02489 0.0535247 -3.31453 1.02625 0.00836129 -25.8526 0.961415 0.359109 -5.83998 0.961417 0.359107 87.6205 -19.5032 -117.019 -6.84059 2.06989 -43.387 -8.57143 3.79931 -22.0924 2.88179 -0.436375 -18.3456 -90.4351 -27.1474 71.4261 16.6517 1.53096 -71.2433 3.73653 -7.58138 -8.33403 -18.833 1.57215 -15.8251 42.8951 -1.35371 -2.02937 -11.0591 -0.202257 -0.165691 
31.5845 90.7127 -0.53489 -3.52826 -57.3032 -3.84931 -147.77 64.4137 83.31 -39.6778 18.6383 -23.8421 71.7461 7.73425 -0.299032 7.6152 -11.1267 2.54541 147.475 62.8249 104.825 -40.9047 -19.0523 20.414 71.5369 -7.87159 -1.99493 15.1994 2.76062 9.22992 0.421184 9.13645 -89.9589 8.6011 0.858634 0.0267189 -3.06955 0.858984 -0.0111036 -25.6068 0.810904 0.283551 -5.59418 0.81091 0.283554 87.7051 -20.627 -116.129 -3.24825 -0.0458275 -41.9454 -9.89883 1.7723 -26.5393 2.56708 -0.36977 -17.3528 -90.4297 -28.2262 71.8478 16.5227 4.771 -70.0498 3.2548 -7.53916 -9.45614 -18.8343 1.48354 -15.2414 40.812 -1.39681 -3.05341 -10.6865 0.2075 0.167219 
31.5698 93.8405 1.39464 -4.2029 -63.8465 -4.62241 -158.892 54.296 90.2567 -35.6355 13.678 -18.1287 70.7908 6.33727 -0.947651 11.0863 -10.3441 4.1305 159.614 53.1516 96.1981 -36.4684 -13.6184 15.5009 70.2532 -6.28503 -1.37991 17.2972 2.20557 8.57377 0.339723 8.9281 -89.9758 9.01774 0.688522 0.000277981 -2.65301 0.687853 -0.0300367 -25.1895 0.656597 0.207185 -5.1769 0.656594 0.207178 87.8464 -21.1592 -115.502 1.64351 -1.76815 -38.553 -11.2319 1.38538 -31.8141 2.64158 -0.356577 -16.6041 -90.9054 -30.5426 71.7895 16.0014 8.22062 -66.2779 3.58424 -7.96815 -14.7536 -17.0897 1.03545 -13.0283 35.5986 -1.35595 -2.98676 -10.362 0.06846 -0.0934569 
31.5894 96.0787 3.90075 -6.39848 -70.6739 -7.35021 -164.486 43.3122 92.2335 -31.9722 9.17864 -12.9098 70.4925 5.64663 -1.78263 11.8151 -9.98351 4.16065 165.89 42.9857 92.5868 -33.0724 -10.5227 10.6242 69.2504 -5.25083 -0.688083 20.8567 1.67031 6.01898 0.278184 8.68789 -89.9181 9.49789 0.591613 0.117632 -2.17294 0.596232 0.091488 -24.7089 0.528908 0.290009 -4.6963 0.52891 0.290005 88.2485 -21.4472 -114.44 7.0576 -2.67725 -35.3658 -9.26527 6.35448 -36.5654 3.78742 -0.52357 -17.9281 -90.7137 -32.5173 72.8384 13.8191 10.9164 -63.5205 4.82036 -6.9415 -19.1479 -20.039 1.43582 -14.1682 29.577 -1.05526 -1.77307 -11.5193 -0.209808 -1.24726 
31.66 97.7097 6.66957 -7.78157 -77.1074 -9.34924 -168.363 32.8153 92.092 -28.6652 5.63052 -8.35634 70.4134 5.38726 -2.46294 16.6854 -8.58401 6.0742 169.352 33.2746 90.5606 -30.5855 -7.33006 7.03215 69.7259 -5.34973 -0.284599 21.4851 1.72406 5.04317 0.189197 8.39548 -89.8476 10.0823 0.44649 0.265734 -1.58858 0.45775 0.245818 -24.1239 0.345982 0.387643 -4.11129 0.345982 0.387633 89.2179 -22.0202 -111.972 12.1006 -3.83782 -33.3621 -6.05796 10.7392 -41.284 2.85524 -0.378475 -16.6706 -89.7879 -34.1222 75.0411 10.1641 12.089 -61.6325 5.234 -8.41148 -22.183 -21.3727 1.46238 -13.5895 21.329 -0.6838 -3.10751 -9.19279 0.313518 0.810152 
31.6064 99.1555 9.67049 -15.3777 -83.2541 -17.0765 -171.069 22.04 91.9312 -24.4507 2.80287 -4.84717 70.1784 5.05064 -3.47532 16.9839 -8.66585 6.50077 170.994 22.5996 89.6681 -26.1505 -5.40505 4.63152 69.2753 -5.0125 0.263967 23.2322 1.13385 4.63054 0.180529 8.23223 -89.876 10.409 0.416516 0.209953 -1.26186 0.425351 0.191414 -23.7973 0.334159 0.325422 -3.78461 0.334156 0.325415 90.1049 -21.9609 -110.029 16.9824 -3.36998 -31.4812 -4.87218 11.6485 -46.4875 3.04505 -0.378086 -15.5371 -89.0074 -35.7176 76.8882 5.62253 11.7147 -60.0806 6.06456 -8.95127 -26.5234 -24.2118 1.60382 -13.0976 16.0747 -0.295879 -1.82373 -9.33697 0.238761 -0.205691 
31.4675 100.149 12.3968 -49.8768 -87.0487 -51.718 -171.977 13.1555 91.7574 -19.8626 1.5842 -3.14187 69.1607 4.59046 -3.47241 19.0086 -8.44804 8.03211 171.904 14.0013 89.341 -22.0075 -4.68056 2.91678 69.0414 -4.85591 0.642611 23.6998 1.23203 3.63424 0.216059 7.95452 -89.8611 10.9643 0.494483 0.228826 -0.706555 0.504067 0.206833 -23.2421 0.402846 0.366858 -3.22944 0.402845 0.36686 90.8604 -21.8584 -108.375 21.0301 -3.03707 -30.7329 -2.38916 13.6858 -49.9215 2.06827 -0.248985 -14.5598 -88.8934 -36.3127 77.2607 -1.36766 9.36738 -56.8302 8.25262 -7.64532 -31.4393 -23.3977 1.06234 -10.6623 10.8919 0.18819 -1.33459 -10.2123 0.514423 -0.403347 
31.1774 100.783 14.7022 -114.736 -86.3575 -116.392 -172.141 6.08204 92.0999 -15.9158 0.328649 -1.96731 68.4566 4.07467 -3.96065 20.0125 -8.26625 8.6945 172.194 7.13659 89.3187 -18.2384 -5.07052 1.95009 68.2883 -4.45607 1.00412 23.0961 1.33249 4.15498 0.268053 7.70898 -89.9161 11.4557 0.572541 0.10895 -0.215096 0.576788 0.0836364 -22.7511 0.513326 0.275993 -2.73841 0.513323 0.275983 91.1957 -21.0177 -108.008 23.9666 -1.38054 -29.5202 0.00718003 14.619 -55.0334 1.87083 -0.195649 -12.8138 -87.258 -37.6381 80.4467 -4.52798 7.70125 -55.0218 5.72168 -11.9435 -37.2278 -18.192 0.112277 -5.82948 7.76841 1.06011 0.55842 -12.0735 1.04809 -1.59784 
31.2936 101.166 16.5772 -132.374 -83.8748 -134.218 -172.289 0.529624 91.81 -12.2967 -0.803834 -1.16888 67.5131 3.71768 -3.97805 20.3814 -8.65986 9.79015 171.535 2.01506 88.1093 -15.6272 -7.06869 1.54002 68.0491 -4.27487 1.06452 22.9755 1.4868 3.8111 0.244324 7.55367 -89.8691 11.766 0.5475 0.203398 0.0951813 0.555918 0.179099 -22.4405 0.461055 0.35854 -2.4279 0.461053 0.358542 90.6811 -21.803 -108.807 24.6436 0.437526 -29.2914 -2.30062 12.3269 -60.1577 5.02801 -0.459406 -13.8723 -86.3628 -36.7531 81.8267 -9.25981 6.4056 -49.444 -3.44649 -18.8333 -47.0748 -17.7844 0.00679827 -5.09153 5.77713 1.67714 0.0887428 -13.542 1.68708 -0.553662 
